<svg id="instagram" xmlns="http://www.w3.org/2000/svg" width="32.331" height="32.337" viewBox="0 0 32.331 32.337">
  <path id="Path_11" data-name="Path 11" d="M32.7,9.507a11.816,11.816,0,0,0-.752-3.923A8.284,8.284,0,0,0,27.215.853,11.847,11.847,0,0,0,23.292.1C21.561.019,21.012,0,16.621,0s-4.94.019-6.665.095A11.819,11.819,0,0,0,6.034.846a7.89,7.89,0,0,0-2.868,1.87A7.962,7.962,0,0,0,1.3,5.578,11.848,11.848,0,0,0,.55,9.5c-.082,1.731-.1,2.281-.1,6.671s.019,4.94.095,6.665A11.815,11.815,0,0,0,1.3,26.76a8.282,8.282,0,0,0,4.731,4.731,11.848,11.848,0,0,0,3.923.752c1.724.076,2.274.095,6.665.095s4.94-.019,6.665-.095a11.813,11.813,0,0,0,3.923-.752,8.271,8.271,0,0,0,4.732-4.731,11.856,11.856,0,0,0,.752-3.923c.076-1.725.095-2.274.095-6.665S32.774,11.232,32.7,9.507Zm-2.912,13.2a8.863,8.863,0,0,1-.556,3,5.364,5.364,0,0,1-3.07,3.07,8.9,8.9,0,0,1-3,.556c-1.706.076-2.217.095-6.532.095s-4.833-.019-6.532-.095a8.859,8.859,0,0,1-3-.556,4.976,4.976,0,0,1-1.857-1.207,5.027,5.027,0,0,1-1.207-1.857,8.9,8.9,0,0,1-.556-3c-.076-1.706-.095-2.217-.095-6.532s.019-4.833.095-6.532a8.859,8.859,0,0,1,.556-3A4.915,4.915,0,0,1,5.244,4.795,5.02,5.02,0,0,1,7.1,3.588a8.9,8.9,0,0,1,3-.556c1.706-.076,2.217-.095,6.532-.095s4.833.019,6.532.095a8.863,8.863,0,0,1,3,.556,4.972,4.972,0,0,1,1.857,1.206A5.026,5.026,0,0,1,29.23,6.652a8.9,8.9,0,0,1,.556,3c.076,1.706.095,2.217.095,6.532S29.862,21,29.786,22.71Zm0,0" transform="translate(-0.449 0)" fill="#676767"/>
  <path id="Path_12" data-name="Path 12" d="M133.256,124.5a8.307,8.307,0,1,0,8.307,8.307A8.309,8.309,0,0,0,133.256,124.5Zm0,13.7a5.389,5.389,0,1,1,5.389-5.389A5.389,5.389,0,0,1,133.256,138.2Zm0,0" transform="translate(-117.084 -116.635)" fill="#676767"/>
  <path id="Path_13" data-name="Path 13" d="M366.328,90.541a1.939,1.939,0,1,1-1.94-1.939A1.94,1.94,0,0,1,366.328,90.541Zm0,0" transform="translate(-339.581 -83.004)" fill="#676767"/>
</svg>
