<svg xmlns="http://www.w3.org/2000/svg" width="67.973" height="52.636" viewBox="0 0 67.973 52.636">
  <path id="Subtraction_11" data-name="Subtraction 11" d="M67.973,52.636H0V18.206H4.818L9.977,0h9.306L14.665,18.223l12.133-.05L31.693,0H41.58L36.726,18.132l12.131-.051L53.836,0h9.7L58.705,18.024h9.266v34.61ZM34.17,20.626a14.209,14.209,0,1,0,10.055,4.159A14.136,14.136,0,0,0,34.17,20.626Zm1.506,19.623a1.185,1.185,0,0,1-.855-.3,1.767,1.767,0,0,1-.439-.924l-1.039-5.26-2.866,5.5a1.906,1.906,0,0,1-.632.749,1.711,1.711,0,0,1-.943.239,1.2,1.2,0,0,1-.864-.3,1.767,1.767,0,0,1-.439-.924l-1.6-7.994a1.42,1.42,0,0,1,.2-1.18,1.242,1.242,0,0,1,1.045-.454,1.2,1.2,0,0,1,.87.314,1.64,1.64,0,0,1,.427.935l.976,5.555,2.992-5.815a2.015,2.015,0,0,1,.606-.749,1.431,1.431,0,0,1,.838-.24,1,1,0,0,1,.772.309,1.842,1.842,0,0,1,.393.942l1.006,5.612L39.056,30.4a2.234,2.234,0,0,1,.578-.753,1.373,1.373,0,0,1,.859-.249,1.089,1.089,0,0,1,1.052.514,1.293,1.293,0,0,1-.1,1.239l-4.2,8.122a1.869,1.869,0,0,1-.63.744A1.712,1.712,0,0,1,35.676,40.249Z" transform="translate(-0.001)" fill="#4e73a5"/>
</svg>
