<svg xmlns="http://www.w3.org/2000/svg" width="37.338" height="30.654" viewBox="0 0 37.338 30.654">
  <path id="twitter" d="M.672,29.517a21.9,21.9,0,0,0,11.756,3.388A21.5,21.5,0,0,0,34.24,11.045C35.721,9.778,37.463,7.358,37.463,5a1.181,1.181,0,0,0-1.776-1.017,4.876,4.876,0,0,1-3.965.665,8.42,8.42,0,0,0-9.973-1.343,8.1,8.1,0,0,0-4.4,7.593A19.537,19.537,0,0,1,4.677,3.977a1.18,1.18,0,0,0-1.927.157,8.217,8.217,0,0,0-.184,8.115A1.227,1.227,0,0,0,1.54,13.471a8.316,8.316,0,0,0,2.9,6.281,1.177,1.177,0,0,0-.3,1.222A8.464,8.464,0,0,0,8.926,26.1a13.728,13.728,0,0,1-7.477,1.248,1.179,1.179,0,0,0-.777,2.165Zm12.078-3.009a1.18,1.18,0,0,0-.693-2.113,6.15,6.15,0,0,1-4.83-2.512,8.316,8.316,0,0,0,1.61-.258,1.18,1.18,0,0,0-.075-2.294,6.052,6.052,0,0,1-4.586-4.119,8.137,8.137,0,0,0,1.8.239,1.18,1.18,0,0,0,.671-2.163,5.858,5.858,0,0,1-2.509-6.4,21.921,21.921,0,0,0,14.522,6.482,1.177,1.177,0,0,0,1.206-1.442,5.753,5.753,0,0,1,3-6.551A6.028,6.028,0,0,1,30.237,6.5c.7.74,3.073.769,4.279.487a7.6,7.6,0,0,1-2.151,2.53,1.179,1.179,0,0,0-.5,1.023,19.171,19.171,0,0,1-5.279,14.086A19.308,19.308,0,0,1,12.43,30.545,19.8,19.8,0,0,1,6.077,29.5a15.922,15.922,0,0,0,6.674-3Z" transform="translate(-0.124 -2.251)" fill="#676767"/>
</svg>
